<svg width="312" height="312" viewBox="0 0 312 312" fill="none" xmlns="http://www.w3.org/2000/svg">
<rect width="312" height="312" fill="url(#paint0_linear_26_22)"/>
<path d="M41.0779 126.385C46.7329 128.14 50.5877 133.372 50.5877 139.293V184.844C43.6391 187.001 36.5896 181.807 36.5896 174.532V124.992L41.0779 126.385ZM76.824 126.657C79.1981 124.167 83.3106 124.715 84.949 127.74C85.9953 129.672 85.6768 132.059 84.1609 133.65L64.2996 154.484L84.1609 175.319C85.6771 176.91 85.995 179.297 84.949 181.229C83.3107 184.255 79.1981 184.804 76.824 182.313L55.4685 159.911C54.1985 158.785 53.4039 157.277 53.1404 155.677C53.135 155.644 53.1307 155.612 53.1257 155.58C53.1112 155.483 53.0974 155.387 53.0867 155.29C53.0803 155.232 53.0761 155.174 53.0711 155.117C53.065 155.046 53.0585 154.976 53.0545 154.905C53.0502 154.831 53.0477 154.757 53.0457 154.683C53.0439 154.617 53.0427 154.55 53.0427 154.484C53.0427 154.418 53.0439 154.352 53.0457 154.286C53.0477 154.212 53.0501 154.137 53.0545 154.063C53.0585 153.992 53.0649 153.921 53.0711 153.85C53.076 153.794 53.0804 153.737 53.0867 153.68C53.0976 153.582 53.1109 153.483 53.1257 153.385C53.1304 153.355 53.1354 153.325 53.1404 153.295C53.4042 151.691 54.2001 150.178 55.4744 149.052L76.824 126.657Z" fill="white"/>
<circle cx="115.991" cy="156.125" r="31.133" fill="white"/>
<circle cx="158.467" cy="178.811" r="8.44694" fill="white"/>
<path d="M232.559 124.992C234.425 124.992 235.938 126.505 235.938 128.371V183.88C235.937 185.745 234.425 187.258 232.559 187.258H224.836C222.97 187.258 221.457 185.745 221.457 183.88V179.111C215.921 184.171 208.551 187.258 200.46 187.258C183.266 187.257 169.327 173.319 169.327 156.125C169.327 138.931 183.266 124.992 200.46 124.992C208.551 124.992 215.921 128.079 221.457 133.138V128.371C221.457 126.505 222.97 124.992 224.836 124.992H232.559ZM200.46 137.542C190.463 137.542 182.359 146.186 182.359 156.849C182.36 167.512 190.464 176.156 200.46 176.156C210.457 176.156 218.56 167.512 218.561 156.849C218.561 146.186 210.457 137.542 200.46 137.542Z" fill="white"/>
<path d="M272.621 155.884C274.487 155.884 276 157.396 276 159.262V183.88C275.999 185.745 274.487 187.258 272.621 187.258H255.245C253.379 187.258 251.866 185.745 251.866 183.88V159.262C251.866 157.396 253.379 155.884 255.245 155.884H272.621ZM263.933 124.992C270.598 124.992 276 130.395 276 137.059C276 143.724 270.598 149.126 263.933 149.126C257.269 149.126 251.866 143.724 251.866 137.059C251.866 130.395 257.269 124.992 263.933 124.992Z" fill="white"/>
<defs>
<linearGradient id="paint0_linear_26_22" x1="156" y1="0" x2="156" y2="312" gradientUnits="userSpaceOnUse">
<stop stop-color="#B621FF"/>
<stop offset="0.08" stop-color="#8A21C1"/>
<stop offset="0.5" stop-color="#5D1189"/>
<stop offset="0.93" stop-color="#222222"/>
</linearGradient>
</defs>
</svg>
