<svg width="42" height="42" viewBox="0 0 42 42" fill="none" xmlns="http://www.w3.org/2000/svg">
<rect width="42" height="42" fill="url(#paint0_linear_26_22)"/>
<path d="M5.53002 17.0133C6.29105 17.2496 6.81016 17.9537 6.8103 18.7506V24.8824C5.87493 25.1727 4.92556 24.4741 4.92553 23.4948V16.8258L5.53002 17.0133ZM10.3415 17.0494C10.6612 16.7144 11.2158 16.7887 11.4363 17.1959C11.5768 17.4559 11.5336 17.7778 11.3298 17.9918L8.656 20.7955L11.3298 23.6002C11.5337 23.8142 11.5768 24.1361 11.4363 24.3961C11.2158 24.8034 10.6612 24.8777 10.3415 24.5426L7.45678 21.5153C7.2943 21.3666 7.19082 21.1715 7.15502 20.9635C7.15208 20.9466 7.15023 20.9297 7.14819 20.9127C7.14148 20.8565 7.13824 20.7996 7.14135 20.7428C7.14251 20.7212 7.14561 20.6998 7.14819 20.6783C7.15024 20.6615 7.15207 20.6444 7.15502 20.6276C7.19102 20.4198 7.2943 20.2243 7.45678 20.0758L10.3415 17.0494Z" fill="white"/>
<circle cx="15.6142" cy="21.0168" r="4.19098" fill="white"/>
<circle cx="21.3321" cy="24.0707" r="1.13709" fill="white"/>
<path d="M31.3058 16.8258C31.557 16.8258 31.7609 17.0297 31.7609 17.2809V24.7526C31.7609 25.0038 31.557 25.2076 31.3058 25.2076H30.2667C30.0155 25.2076 29.8116 25.0038 29.8116 24.7526V24.11C29.0664 24.7913 28.0748 25.2075 26.9855 25.2076C24.671 25.2076 22.7943 23.3316 22.7941 21.0172C22.7941 18.7026 24.6709 16.8258 26.9855 16.8258C28.0745 16.8259 29.0665 17.2414 29.8116 17.9225V17.2809C29.8116 17.0297 30.0155 16.8258 30.2667 16.8258H31.3058ZM26.9855 18.5153C25.6399 18.5153 24.5482 19.6786 24.548 21.1139C24.548 22.5493 25.6398 23.7135 26.9855 23.7135C28.331 23.7133 29.422 22.5492 29.422 21.1139C29.4218 19.6788 28.3309 18.5155 26.9855 18.5153Z" fill="white"/>
<path d="M36.699 20.984C36.9502 20.984 37.1541 21.1879 37.1541 21.4391V24.7526C37.1541 25.0038 36.9502 25.2076 36.699 25.2076H34.3601C34.1089 25.2076 33.905 25.0038 33.905 24.7526V21.4391C33.9051 21.1879 34.1089 20.984 34.3601 20.984H36.699ZM35.5291 16.8258C36.4261 16.8258 37.1539 17.5529 37.1541 18.4498C37.1541 19.347 36.4262 20.0748 35.5291 20.0748C34.6321 20.0746 33.905 19.3468 33.905 18.4498C33.9053 17.553 34.6322 16.826 35.5291 16.8258Z" fill="white"/>
<defs>
<linearGradient id="paint0_linear_26_22" x1="21" y1="0" x2="21" y2="42" gradientUnits="userSpaceOnUse">
<stop stop-color="#B621FF"/>
<stop offset="0.08" stop-color="#8A21C1"/>
<stop offset="0.5" stop-color="#5D1189"/>
<stop offset="0.93" stop-color="#222222"/>
</linearGradient>
</defs>
</svg>
