<svg width="128" height="34" viewBox="0 0 128 34" fill="none" xmlns="http://www.w3.org/2000/svg">
<path d="M42.2559 0C51.4064 0 58.8251 7.41789 58.8252 16.5684C58.8252 25.7189 51.4064 33.1367 42.2559 33.1367C33.1055 33.1365 25.6875 25.7188 25.6875 16.5684C25.6876 7.41801 33.1055 0.000189676 42.2559 0ZM64.8613 24.1465C67.344 24.1465 69.3564 26.159 69.3564 28.6416C69.3564 31.1243 67.344 33.1367 64.8613 33.1367C62.3786 33.1367 60.3662 31.1243 60.3662 28.6416C60.3663 26.159 62.3787 24.1465 64.8613 24.1465ZM104.291 0C105.284 0 106.09 0.804896 106.09 1.79785V31.3389C106.09 32.332 105.284 33.1367 104.291 33.1367H100.182C99.1888 33.1365 98.3838 32.3318 98.3838 31.3389V28.8008C95.4375 31.4937 91.5151 33.1367 87.209 33.1367C78.0587 33.1364 70.6406 25.7187 70.6406 16.5684C70.6407 7.41811 78.0588 0.000350484 87.209 0C91.515 0 95.4375 1.64311 98.3838 4.33594V1.79785C98.3839 0.805049 99.1889 0.000247323 100.182 0H104.291ZM125.613 16.4404C126.606 16.4407 127.411 17.2454 127.411 18.2383V31.3389C127.411 32.3318 126.606 33.1364 125.613 33.1367H116.365C115.372 33.1366 114.567 32.3319 114.567 31.3389V18.2383C114.567 17.2453 115.372 16.4406 116.365 16.4404H125.613ZM2.38867 0.741211C5.3981 1.67517 7.44908 4.45936 7.44922 7.61035V31.8525C3.75133 33.0001 0 30.2361 0 26.3643V0L2.38867 0.741211ZM21.4121 0.886719C22.6755 -0.438644 24.8633 -0.147104 25.7354 1.46289C26.2921 2.49134 26.1233 3.76188 25.3164 4.6084L14.7471 15.6953L25.3164 26.7842C26.1231 27.6308 26.2922 28.9013 25.7354 29.9297C24.8632 31.5391 22.6754 31.8307 21.4121 30.5059L10.0518 18.5879C9.37491 17.9901 8.9503 17.188 8.80859 16.3369C8.80461 16.3133 8.80138 16.2893 8.79785 16.2656C8.79116 16.2202 8.78439 16.1745 8.7793 16.1289C8.77578 16.0978 8.77326 16.0663 8.77051 16.0352C8.76695 15.9943 8.76399 15.9531 8.76172 15.9121C8.7598 15.878 8.75785 15.8436 8.75684 15.8096C8.75575 15.7719 8.75585 15.734 8.75586 15.6963C8.75584 15.6583 8.75574 15.62 8.75684 15.582C8.75784 15.5483 8.75982 15.5142 8.76172 15.4805C8.764 15.4392 8.76692 15.3976 8.77051 15.3564C8.77332 15.3246 8.77666 15.2925 8.78027 15.2607C8.78539 15.2152 8.79114 15.1694 8.79785 15.124C8.80121 15.1017 8.80484 15.079 8.80859 15.0566C8.95004 14.205 9.37443 13.4019 10.0518 12.8037L21.4121 0.886719ZM87.209 6.67871C81.8892 6.67908 77.5762 11.2796 77.5762 16.9541C77.5763 22.6285 81.8893 27.2281 87.209 27.2285C92.529 27.2285 96.8417 22.6287 96.8418 16.9541C96.8418 11.2793 92.5291 6.67871 87.209 6.67871ZM120.989 0C124.536 0.000197906 127.411 2.87529 127.411 6.42188C127.411 9.96848 124.536 12.8436 120.989 12.8438C117.443 12.8437 114.567 9.96859 114.567 6.42188C114.567 2.87518 117.443 2.34514e-05 120.989 0Z" fill="white"/>
</svg>
