<svg width="40" height="40" viewBox="0 0 40 40" fill="none" xmlns="http://www.w3.org/2000/svg">
<path d="M20 3.32C16.9829 3.32055 14.0225 4.14012 11.4346 5.69127C8.84669 7.24242 6.72841 9.46698 5.3057 12.1276C3.88299 14.7883 3.2092 17.7853 3.35623 20.7988C3.50325 23.8124 4.46557 26.7295 6.14052 29.2391C7.81548 31.7486 10.1402 33.7564 12.8668 35.0483C15.5934 36.3401 18.6196 36.8676 21.6224 36.5745C24.6253 36.2813 27.4923 35.1785 29.9176 33.3837C32.3428 31.5889 34.2354 29.1694 35.3934 26.3833C35.9617 25.0167 34.6 23.6433 33.23 24.2C30.882 25.1511 28.2749 25.2493 25.862 24.4774C23.4491 23.7055 21.383 22.1124 20.0229 19.975C18.6629 17.8377 18.0949 15.2913 18.4178 12.7786C18.7406 10.2659 19.9339 7.94578 21.79 6.22167L21.9184 6.08833C22.8367 5.03833 22.1067 3.33333 20.655 3.33333H20.2117L20.0984 3.32333L20 3.32Z" fill="white"/>
</svg>
