<svg width="18" height="18" viewBox="0 0 18 18" fill="none" xmlns="http://www.w3.org/2000/svg">
<g clip-path="url(#clip0_50_8)">
<path d="M15 6H13V7H15V8H16V7C16 6.73478 15.8946 6.48043 15.7071 6.29289C15.5196 6.10536 15.2652 6 15 6Z" fill="white"/>
<path d="M15 9H16V12H15V9Z" fill="white"/>
<path d="M15 15H14V16H15C15.2652 16 15.5196 15.8946 15.7071 15.7071C15.8946 15.5196 16 15.2652 16 15V13H15V15Z" fill="white"/>
<path d="M11 2H3C2.44772 2 2 2.44772 2 3V11C2 11.5523 2.44772 12 3 12H11C11.5523 12 12 11.5523 12 11V3C12 2.44772 11.5523 2 11 2Z" fill="white"/>
<path d="M10 15H13V16H10V15Z" fill="white"/>
<path d="M7 13H6V15C6 15.2652 6.10536 15.5196 6.29289 15.7071C6.48043 15.8946 6.73478 16 7 16H9V15H7V13Z" fill="white"/>
</g>
<defs>
<clipPath id="clip0_50_8">
<rect width="18" height="18" fill="white"/>
</clipPath>
</defs>
</svg>
