<svg width="15" height="15" viewBox="0 0 15 15" fill="none" xmlns="http://www.w3.org/2000/svg">
<path d="M7.5 1.25C10.9519 1.25 13.75 4.04813 13.75 7.5C13.75 10.9519 10.9519 13.75 7.5 13.75C4.04813 13.75 1.25 10.9519 1.25 7.5C1.25 4.04813 4.04813 1.25 7.5 1.25ZM7.5 10C7.33424 10 7.17527 10.0658 7.05806 10.1831C6.94085 10.3003 6.875 10.4592 6.875 10.625C6.875 10.7908 6.94085 10.9497 7.05806 11.0669C7.17527 11.1842 7.33424 11.25 7.5 11.25C7.66576 11.25 7.82473 11.1842 7.94194 11.0669C8.05915 10.9497 8.125 10.7908 8.125 10.625C8.125 10.4592 8.05915 10.3003 7.94194 10.1831C7.82473 10.0658 7.66576 10 7.5 10ZM7.5 4.0625C6.89912 4.0625 6.32285 4.3012 5.89796 4.72609C5.47307 5.15097 5.23438 5.72724 5.23438 6.32812C5.23437 6.49389 5.30022 6.65286 5.41743 6.77007C5.53464 6.88728 5.69361 6.95312 5.85938 6.95312C6.02514 6.95312 6.18411 6.88728 6.30132 6.77007C6.41853 6.65286 6.48438 6.49389 6.48438 6.32812C6.48458 6.14377 6.53496 5.96295 6.63011 5.80505C6.72527 5.64716 6.8616 5.51814 7.0245 5.43182C7.1874 5.34551 7.37072 5.30517 7.55481 5.31512C7.73889 5.32507 7.91679 5.38493 8.06944 5.4883C8.22209 5.59166 8.34373 5.73462 8.42131 5.90186C8.49889 6.06909 8.52949 6.25429 8.50983 6.43759C8.49017 6.62089 8.42099 6.79538 8.3097 6.94235C8.19841 7.08933 8.04922 7.20324 7.87812 7.27188C7.45562 7.44063 6.875 7.87313 6.875 8.59375V8.75C6.875 8.91576 6.94085 9.07473 7.05806 9.19194C7.17527 9.30915 7.33424 9.375 7.5 9.375C7.66576 9.375 7.82473 9.30915 7.94194 9.19194C8.05915 9.07473 8.125 8.91576 8.125 8.75C8.125 8.5975 8.15625 8.52125 8.28812 8.45625L8.3425 8.43125C8.83051 8.23493 9.23503 7.87497 9.48671 7.41307C9.73839 6.95118 9.82156 6.41611 9.72195 5.89962C9.62235 5.38312 9.34617 4.91735 8.94078 4.58217C8.53538 4.24699 8.02602 4.06327 7.5 4.0625Z" fill="white"/>
</svg>
