<svg width="40" height="40" viewBox="0 0 40 40" fill="none" xmlns="http://www.w3.org/2000/svg">
<g clip-path="url(#clip0_124_13)">
<mask id="mask0_124_13" style="mask-type:luminance" maskUnits="userSpaceOnUse" x="0" y="0" width="40" height="40">
<path d="M0 0H40V40H0V0Z" fill="white"/>
</mask>
<g mask="url(#mask0_124_13)">
<path d="M20 0C20.442 0 20.8659 0.175595 21.1785 0.488155C21.4911 0.800716 21.6667 1.22464 21.6667 1.66667V5C21.6667 5.44203 21.4911 5.86595 21.1785 6.17851C20.8659 6.49107 20.442 6.66667 20 6.66667C19.558 6.66667 19.134 6.49107 18.8215 6.17851C18.5089 5.86595 18.3333 5.44203 18.3333 5V1.66667C18.3333 1.22464 18.5089 0.800716 18.8215 0.488155C19.134 0.175595 19.558 0 20 0ZM0 20C0 19.558 0.175595 19.134 0.488155 18.8215C0.800716 18.5089 1.22464 18.3333 1.66667 18.3333H5C5.44203 18.3333 5.86595 18.5089 6.17851 18.8215C6.49107 19.134 6.66667 19.558 6.66667 20C6.66667 20.442 6.49107 20.8659 6.17851 21.1785C5.86595 21.4911 5.44203 21.6667 5 21.6667H1.66667C1.22464 21.6667 0.800716 21.4911 0.488155 21.1785C0.175595 20.8659 0 20.442 0 20ZM35 18.3333C34.558 18.3333 34.134 18.5089 33.8215 18.8215C33.5089 19.134 33.3333 19.558 33.3333 20C33.3333 20.442 33.5089 20.8659 33.8215 21.1785C34.134 21.4911 34.558 21.6667 35 21.6667H38.3333C38.7754 21.6667 39.1993 21.4911 39.5118 21.1785C39.8244 20.8659 40 20.442 40 20C40 19.558 39.8244 19.134 39.5118 18.8215C39.1993 18.5089 38.7754 18.3333 38.3333 18.3333H35ZM21.6667 35C21.6667 34.558 21.4911 34.134 21.1785 33.8215C20.8659 33.5089 20.442 33.3333 20 33.3333C19.558 33.3333 19.134 33.5089 18.8215 33.8215C18.5089 34.134 18.3333 34.558 18.3333 35V38.3333C18.3333 38.7754 18.5089 39.1993 18.8215 39.5118C19.134 39.8244 19.558 40 20 40C20.442 40 20.8659 39.8244 21.1785 39.5118C21.4911 39.1993 21.6667 38.7754 21.6667 38.3333V35ZM10.5717 29.4283C10.8841 29.7409 11.0596 30.1647 11.0596 30.6067C11.0596 31.0486 10.8841 31.4725 10.5717 31.785L8.21667 34.1417C8.06292 34.3009 7.87901 34.4278 7.67567 34.5152C7.47233 34.6025 7.25363 34.6485 7.03234 34.6504C6.81104 34.6523 6.59157 34.6102 6.38674 34.5264C6.18192 34.4426 5.99583 34.3188 5.83934 34.1623C5.68285 34.0058 5.5591 33.8198 5.4753 33.6149C5.3915 33.4101 5.34933 33.1906 5.35125 32.9693C5.35317 32.748 5.39915 32.5293 5.4865 32.326C5.57385 32.1227 5.70082 31.9387 5.86 31.785L8.21667 29.4283C8.52921 29.1159 8.95306 28.9404 9.395 28.9404C9.83694 28.9404 10.2591 29.1159 10.5717 29.4283ZM34.1417 5.85833C34.4541 6.17088 34.6296 6.59473 34.6296 7.03667C34.6296 7.47861 34.4541 7.90245 34.1417 8.215L31.785 10.5717C31.6313 10.7308 31.4473 10.8578 31.244 10.9452C31.0407 11.0325 30.822 11.0785 30.6007 11.0804C30.3794 11.0823 30.1599 11.0402 29.9551 10.9564C29.7502 10.8726 29.5642 10.7488 29.4077 10.5923C29.2512 10.4358 29.1274 10.2498 29.0436 10.0449C28.9598 9.8401 28.9177 9.62063 28.9196 9.39933C28.9215 9.17803 28.9675 8.95933 29.0548 8.75599C29.1422 8.55265 29.2691 8.36874 29.4283 8.215L31.785 5.85833C32.0975 5.54588 32.5214 5.37036 32.9633 5.37036C33.4053 5.37036 33.8291 5.54588 34.1417 5.85833ZM5.85833 5.85833C6.17088 5.54588 6.59473 5.37036 7.03667 5.37036C7.47861 5.37036 7.90245 5.54588 8.215 5.85833L10.5717 8.215C10.7346 8.36776 10.8651 8.55171 10.9555 8.7559C11.046 8.9601 11.0944 9.18039 11.0981 9.40369C11.1017 9.62699 11.0604 9.84873 10.9766 10.0558C10.8929 10.2628 10.7684 10.4509 10.6105 10.6088C10.4527 10.7668 10.2647 10.8914 10.0577 10.9753C9.85075 11.0592 9.62903 11.1007 9.40573 11.0972C9.18243 11.0937 8.96211 11.0454 8.75784 10.9552C8.55358 10.8649 8.36954 10.7345 8.21667 10.5717L5.85833 8.21667C5.54588 7.90412 5.37036 7.48027 5.37036 7.03833C5.37036 6.59639 5.54588 6.17088 5.85833 5.85833ZM29.4283 29.4283C29.7409 29.1159 30.1647 28.9404 30.6067 28.9404C31.0486 28.9404 31.4725 29.1159 31.785 29.4283L34.1417 31.785C34.3009 31.9387 34.4278 32.1227 34.5152 32.326C34.6025 32.5293 34.6485 32.748 34.6504 32.9693C34.6523 33.1906 34.6102 33.4101 34.5264 33.6149C34.4426 33.8198 34.3188 34.0058 34.1623 34.1623C34.0058 34.3188 33.8198 34.4426 33.6149 34.5264C33.4101 34.6102 33.1906 34.6523 32.9693 34.6504C32.748 34.6485 32.5293 34.6025 32.326 34.5152C32.1227 34.4278 31.9387 34.3009 31.785 34.1417L29.4283 31.785C29.1159 31.4725 28.9404 31.0486 28.9404 30.6067C28.9404 30.1647 29.1159 29.7409 29.4283 29.4283ZM8.33333 20C8.33333 18.4679 8.6351 16.9508 9.2214 15.5354C9.80771 14.1199 10.6671 12.8338 11.7504 11.7504C12.8338 10.6671 14.1199 9.80771 15.5354 9.2214C16.9508 8.6351 18.4679 8.33333 20 8.33333C21.5321 8.33333 23.0492 8.6351 24.4646 9.2214C25.8801 9.80771 27.1662 10.6671 28.2496 11.7504C29.3329 12.8338 30.1923 14.1199 30.7786 15.5354C31.3649 16.9508 31.6667 18.4679 31.6667 20C31.6667 23.0942 30.4375 26.0617 28.2496 28.2496C26.0617 30.4375 23.0942 31.6667 20 31.6667C16.9058 31.6667 13.9383 30.4375 11.7504 28.2496C9.5625 26.0617 8.33333 23.0942 8.33333 20Z" fill="white"/>
</g>
</g>
<defs>
<clipPath id="clip0_124_13">
<rect width="40" height="40" fill="white"/>
</clipPath>
</defs>
</svg>
